<svg width="417" height="417" viewBox="0 0 417 417" xmlns="http://www.w3.org/2000/svg" xmlns:xlink="http://www.w3.org/1999/xlink"
    overflow="hidden">
    <defs>
        <clipPath id="clip0">
            <rect x="109" y="87" width="417" height="416" />
        </clipPath>
        <clipPath id="clip1">
            <rect x="186" y="157" width="276" height="276" />
        </clipPath>
        <clipPath id="clip2">
            <rect x="186" y="157" width="276" height="276" />
        </clipPath>
        <clipPath id="clip3">
            <rect x="186" y="157" width="276" height="276" />
        </clipPath>
    </defs>
    <g clip-path="url(#clip0)" transform="translate(-109 -87)">
        <path
            d="M110 295C110 180.125 202.901 87 317.5 87 432.099 87 525 180.125 525 295 525 409.875 432.099 503 317.5 503 202.901 503 110 409.875 110 295Z"
            fill-rule="evenodd" />
        <g clip-path="url(#clip1)">
            <g clip-path="url(#clip2)">
                <g clip-path="url(#clip3)">
                    <path
                        d="M400.895 267.249C403.137 259.597 404.375 251.526 404.375 243.154 404.375 195.573 365.818 157 318.229 157 270.657 157 232.084 195.565 232.084 243.154 232.084 251.526 233.33 259.597 235.563 267.249 224.715 275.964 182.613 313.726 199.934 362.695 199.934 362.695 214.587 361.441 226.622 339.185 230.277 353.428 237.085 366.367 246.369 377.181 232.769 381.187 223.544 388.957 223.544 397.873 223.544 410.887 243.182 421.433 267.395 421.433 283.829 421.433 298.14 416.565 305.642 409.389 309.773 409.933 313.939 410.309 318.212 410.309 322.495 410.309 326.668 409.933 330.783 409.389 338.302 416.565 352.604 421.433 369.038 421.433 393.259 421.433 412.905 410.878 412.905 397.873 412.905 388.965 403.672 381.187 390.073 377.181 399.348 366.367 406.173 353.428 409.828 339.185 421.855 361.432 436.491 362.695 436.491 362.695 453.837 313.718 411.735 275.956 400.895 267.249Z"
                        stroke="#000000" stroke-width="1.11515" fill="#FFFFFF" />
                </g>
            </g>
        </g>
    </g>
</svg>